<?xml version="1.0" encoding="UTF-8" standalone="no"?><svg xmlns="http://www.w3.org/2000/svg" xmlns:xlink="http://www.w3.org/1999/xlink" clip-rule="evenodd" stroke-miterlimit="10" viewBox="0 0 1680 1050"><desc>SVG generated by Keynote</desc><defs><linearGradient id="gradSh1.0" x1="0.0" y1="0.0" x2="100.0" y2="0.0" gradientUnits="userSpaceOnUse" gradientTransform="matrix(0.00, -9.40, -15.23, 0.00, 839.5, 995.0)"><stop offset="0.00000" stop-color="#FFFFFF"></stop><stop offset="0.01246" stop-color="#FEFEFE"></stop><stop offset="1.00000" stop-color="#D6D6D6"></stop></linearGradient></defs><g transform="matrix(1.00, 0.00, -0.00, -1.00, 0.0, 1050.0)"><path d="M 0.0 1050.0 L 1680.0 1050.0 L 1680.0 0.0 L 0.0 0.0 Z M 0.0 1050.0 " fill="#D3CCC3"></path><image xlink:href="AA6AEDD8890ABBBCEE2D161D333D80F6.png" width="1549.00" height="966.00" transform="matrix(1.00, 0.00, -0.00, -1.00, 65.0, 1005.0)" opacity="0.60"></image><g><clipPath id="clip0x6000016a5dc0"><path d="M 79.0 71.0 L 79.0 979.0 C 79.0 987.3 85.7 994.0 94.0 994.0 L 1585.0 994.0 C 1593.3 994.0 1600.0 987.3 1600.0 979.0 L 1600.0 71.0 C 1600.0 62.7 1593.3 56.0 1585.0 56.0 L 94.0 56.0 C 85.7 56.0 79.0 62.7 79.0 71.0 Z M 79.0 71.0 "></path></clipPath><g clip-path="url(#clip0x6000016a5dc0)"><path d="M 79.0 71.0 L 79.0 979.0 C 79.0 987.3 85.7 994.0 94.0 994.0 L 1585.0 994.0 C 1593.3 994.0 1600.0 987.3 1600.0 979.0 L 1600.0 71.0 C 1600.0 62.7 1593.3 56.0 1585.0 56.0 L 94.0 56.0 C 85.7 56.0 79.0 62.7 79.0 71.0 Z M 79.0 71.0 " fill="url(#gradSh1.0)"></path></g></g><path d="M 1600.0 815.0 L 1631.0 815.0 L 1600.0 748.0 Z M 1600.0 815.0 " fill="#054009"></path><image xlink:href="BAF4D404B80D4D5427E0C174CBFB1606.png" width="88.00" height="127.00" transform="matrix(1.00, 0.00, -0.00, -1.00, 1548.1, 932.2)" opacity="0.32"></image><path d="M 1551.0 815.3 L 1551.0 927.7 C 1551.0 929.5 1552.5 931.0 1554.3 931.0 L 1627.7 931.0 C 1629.5 931.0 1631.0 929.5 1631.0 927.7 L 1631.0 815.3 C 1631.0 813.5 1629.5 812.0 1627.7 812.0 L 1554.3 812.0 C 1552.5 812.0 1551.0 813.5 1551.0 815.3 Z M 1551.0 815.3 " fill="#0B5C18"></path><text xml:space="preserve" font-family="BankGothic-Medium,Bank Gothic" font-size="24.0" fill="#FFFFFF" transform="matrix(1.00, 0.00, -0.00, -1.00, 1582.5, 901.4)">D</text><text xml:space="preserve" font-family="BankGothic-Medium,Bank Gothic" font-size="24.0" fill="#FFFFFF" transform="matrix(1.00, 0.00, -0.00, -1.00, 1602.9, 901.4)"> </text><text xml:space="preserve" font-family="BankGothic-Medium,Bank Gothic" font-size="24.0" fill="#FFFFFF" transform="matrix(1.00, 0.00, -0.00, -1.00, 1582.5, 876.4)">W</text><text xml:space="preserve" font-family="BankGothic-Medium,Bank Gothic" font-size="24.0" fill="#FFFFFF" transform="matrix(1.00, 0.00, -0.00, -1.00, 1604.8, 876.4)"> </text><text xml:space="preserve" font-family="BankGothic-Medium,Bank Gothic" font-size="24.0" fill="#FFFFFF" transform="matrix(1.00, 0.00, -0.00, -1.00, 1582.5, 851.4)">D</text><text xml:space="preserve" font-family="BankGothic-Medium,Bank Gothic" font-size="24.0" fill="#FFFFFF" transform="matrix(1.00, 0.00, -0.00, -1.00, 1602.9, 851.4)"> </text><text xml:space="preserve" font-family="BankGothic-Medium,Bank Gothic" font-size="24.0" fill="#FFFFFF" transform="matrix(1.00, 0.00, -0.00, -1.00, 1582.5, 826.4)">C</text><text xml:space="preserve" font-family="BankGothic-Medium,Bank Gothic" font-size="114.0" fill="#05510A" transform="matrix(1.00, 0.00, -0.00, -1.00, 305.8, 610.3)">S</text><text xml:space="preserve" font-family="BankGothic-Medium,Bank Gothic" font-size="114.0" fill="#05510A" transform="matrix(1.00, 0.00, -0.00, -1.00, 398.0, 610.3)">Q</text><text xml:space="preserve" font-family="BankGothic-Medium,Bank Gothic" font-size="114.0" fill="#05510A" transform="matrix(1.00, 0.00, -0.00, -1.00, 498.1, 610.3)">L</text><text xml:space="preserve" font-family="BankGothic-Medium,Bank Gothic" font-size="114.0" fill="#05510A" transform="matrix(1.00, 0.00, -0.00, -1.00, 576.0, 610.3)">:</text><text xml:space="preserve" font-family="BankGothic-Medium,Bank Gothic" font-size="114.0" fill="#05510A" transform="matrix(1.00, 0.00, -0.00, -1.00, 613.7, 610.3)"> </text><text xml:space="preserve" font-family="BankGothic-Medium,Bank Gothic" font-size="114.0" fill="#05510A" transform="matrix(1.00, 0.00, -0.00, -1.00, 657.8, 610.3)">t</text><text xml:space="preserve" font-family="BankGothic-Medium,Bank Gothic" font-size="114.0" fill="#05510A" transform="matrix(1.00, 0.00, -0.00, -1.00, 725.1, 610.3)">h</text><text xml:space="preserve" font-family="BankGothic-Medium,Bank Gothic" font-size="114.0" fill="#05510A" transform="matrix(1.00, 0.00, -0.00, -1.00, 806.9, 610.3)">e</text><text xml:space="preserve" font-family="BankGothic-Medium,Bank Gothic" font-size="114.0" fill="#05510A" transform="matrix(1.00, 0.00, -0.00, -1.00, 876.3, 610.3)"> </text><text xml:space="preserve" font-family="BankGothic-Medium,Bank Gothic" font-size="114.0" fill="#05510A" transform="matrix(1.00, 0.00, -0.00, -1.00, 920.4, 610.3)">S</text><text xml:space="preserve" font-family="BankGothic-Medium,Bank Gothic" font-size="114.0" fill="#05510A" transform="matrix(1.00, 0.00, -0.00, -1.00, 1012.6, 610.3)">e</text><text xml:space="preserve" font-family="BankGothic-Medium,Bank Gothic" font-size="114.0" fill="#05510A" transform="matrix(1.00, 0.00, -0.00, -1.00, 1081.9, 610.3)">q</text><text xml:space="preserve" font-family="BankGothic-Medium,Bank Gothic" font-size="114.0" fill="#05510A" transform="matrix(1.00, 0.00, -0.00, -1.00, 1163.4, 610.3)">u</text><text xml:space="preserve" font-family="BankGothic-Medium,Bank Gothic" font-size="114.0" fill="#05510A" transform="matrix(1.00, 0.00, -0.00, -1.00, 1242.0, 610.3)">e</text><text xml:space="preserve" font-family="BankGothic-Medium,Bank Gothic" font-size="114.0" fill="#05510A" transform="matrix(1.00, 0.00, -0.00, -1.00, 1311.3, 610.3)">l</text><text xml:space="preserve" font-family="BankGothic-Light,Bank Gothic" font-size="48.0" fill="#504460" transform="matrix(1.00, 0.00, -0.00, -1.00, 429.5, 526.8)">M</text><text xml:space="preserve" font-family="BankGothic-Light,Bank Gothic" font-size="48.0" fill="#504460" transform="matrix(1.00, 0.00, -0.00, -1.00, 472.9, 526.8)">o</text><text xml:space="preserve" font-family="BankGothic-Light,Bank Gothic" font-size="48.0" fill="#504460" transform="matrix(1.00, 0.00, -0.00, -1.00, 506.0, 526.8)">r</text><text xml:space="preserve" font-family="BankGothic-Light,Bank Gothic" font-size="48.0" fill="#504460" transform="matrix(1.00, 0.00, -0.00, -1.00, 535.4, 526.8)">e</text><text xml:space="preserve" font-family="BankGothic-Light,Bank Gothic" font-size="48.0" fill="#504460" transform="matrix(1.00, 0.00, -0.00, -1.00, 563.3, 526.8)"> </text><text xml:space="preserve" font-family="BankGothic-Light,Bank Gothic" font-size="48.0" fill="#504460" transform="matrix(1.00, 0.00, -0.00, -1.00, 581.3, 526.8)">S</text><text xml:space="preserve" font-family="BankGothic-Light,Bank Gothic" font-size="48.0" fill="#504460" transform="matrix(1.00, 0.00, -0.00, -1.00, 618.7, 526.8)">Q</text><text xml:space="preserve" font-family="BankGothic-Light,Bank Gothic" font-size="48.0" fill="#504460" transform="matrix(1.00, 0.00, -0.00, -1.00, 659.7, 526.8)">L</text><text xml:space="preserve" font-family="BankGothic-Light,Bank Gothic" font-size="48.0" fill="#504460" transform="matrix(1.00, 0.00, -0.00, -1.00, 691.0, 526.8)"> </text><text xml:space="preserve" font-family="BankGothic-Light,Bank Gothic" font-size="48.0" fill="#504460" transform="matrix(1.00, 0.00, -0.00, -1.00, 709.0, 526.8)">i</text><text xml:space="preserve" font-family="BankGothic-Light,Bank Gothic" font-size="48.0" fill="#504460" transform="matrix(1.00, 0.00, -0.00, -1.00, 722.0, 526.8)">n</text><text xml:space="preserve" font-family="BankGothic-Light,Bank Gothic" font-size="48.0" fill="#504460" transform="matrix(1.00, 0.00, -0.00, -1.00, 755.0, 526.8)"> </text><text xml:space="preserve" font-family="BankGothic-Light,Bank Gothic" font-size="48.0" fill="#504460" transform="matrix(1.00, 0.00, -0.00, -1.00, 772.9, 526.8)">t</text><text xml:space="preserve" font-family="BankGothic-Light,Bank Gothic" font-size="48.0" fill="#504460" transform="matrix(1.00, 0.00, -0.00, -1.00, 798.1, 526.8)">h</text><text xml:space="preserve" font-family="BankGothic-Light,Bank Gothic" font-size="48.0" fill="#504460" transform="matrix(1.00, 0.00, -0.00, -1.00, 831.4, 526.8)">e</text><text xml:space="preserve" font-family="BankGothic-Light,Bank Gothic" font-size="48.0" fill="#504460" transform="matrix(1.00, 0.00, -0.00, -1.00, 859.3, 526.8)"> </text><text xml:space="preserve" font-family="BankGothic-Light,Bank Gothic" font-size="48.0" fill="#504460" transform="matrix(1.00, 0.00, -0.00, -1.00, 877.3, 526.8)">d</text><text xml:space="preserve" font-family="BankGothic-Light,Bank Gothic" font-size="48.0" fill="#504460" transform="matrix(1.00, 0.00, -0.00, -1.00, 912.3, 526.8)">a</text><text xml:space="preserve" font-family="BankGothic-Light,Bank Gothic" font-size="48.0" fill="#504460" transform="matrix(1.00, 0.00, -0.00, -1.00, 942.4, 526.8)">t</text><text xml:space="preserve" font-family="BankGothic-Light,Bank Gothic" font-size="48.0" fill="#504460" transform="matrix(1.00, 0.00, -0.00, -1.00, 967.6, 526.8)">a</text><text xml:space="preserve" font-family="BankGothic-Light,Bank Gothic" font-size="48.0" fill="#504460" transform="matrix(1.00, 0.00, -0.00, -1.00, 997.7, 526.8)">b</text><text xml:space="preserve" font-family="BankGothic-Light,Bank Gothic" font-size="48.0" fill="#504460" transform="matrix(1.00, 0.00, -0.00, -1.00, 1028.0, 526.8)">a</text><text xml:space="preserve" font-family="BankGothic-Light,Bank Gothic" font-size="48.0" fill="#504460" transform="matrix(1.00, 0.00, -0.00, -1.00, 1058.1, 526.8)">s</text><text xml:space="preserve" font-family="BankGothic-Light,Bank Gothic" font-size="48.0" fill="#504460" transform="matrix(1.00, 0.00, -0.00, -1.00, 1088.7, 526.8)">e</text><text xml:space="preserve" font-family="BankGothic-Light,Bank Gothic" font-size="48.0" fill="#504460" transform="matrix(1.00, 0.00, -0.00, -1.00, 1116.6, 526.8)">,</text><text xml:space="preserve" font-family="BankGothic-Light,Bank Gothic" font-size="48.0" fill="#504460" transform="matrix(1.00, 0.00, -0.00, -1.00, 1134.5, 526.8)"> </text><text xml:space="preserve" font-family="BankGothic-Light,Bank Gothic" font-size="48.0" fill="#504460" transform="matrix(1.00, 0.00, -0.00, -1.00, 1152.5, 526.8)">a</text><text xml:space="preserve" font-family="BankGothic-Light,Bank Gothic" font-size="48.0" fill="#504460" transform="matrix(1.00, 0.00, -0.00, -1.00, 1182.6, 526.8)">n</text><text xml:space="preserve" font-family="BankGothic-Light,Bank Gothic" font-size="48.0" fill="#504460" transform="matrix(1.00, 0.00, -0.00, -1.00, 1215.5, 526.8)">d</text><text xml:space="preserve" font-family="BankGothic-Light,Bank Gothic" font-size="48.0" fill="#504460" transform="matrix(1.00, 0.00, -0.00, -1.00, 1250.5, 526.8)"> </text><text xml:space="preserve" font-family="BankGothic-Light,Bank Gothic" font-size="48.0" fill="#504460" transform="matrix(1.00, 0.00, -0.00, -1.00, 1268.4, 526.8)"> </text><text xml:space="preserve" font-family="BankGothic-Light,Bank Gothic" font-size="48.0" fill="#504460" transform="matrix(1.00, 0.00, -0.00, -1.00, 374.7, 477.8)">u</text><text xml:space="preserve" font-family="BankGothic-Light,Bank Gothic" font-size="48.0" fill="#504460" transform="matrix(1.00, 0.00, -0.00, -1.00, 406.7, 477.8)">s</text><text xml:space="preserve" font-family="BankGothic-Light,Bank Gothic" font-size="48.0" fill="#504460" transform="matrix(1.00, 0.00, -0.00, -1.00, 437.3, 477.8)">i</text><text xml:space="preserve" font-family="BankGothic-Light,Bank Gothic" font-size="48.0" fill="#504460" transform="matrix(1.00, 0.00, -0.00, -1.00, 450.3, 477.8)">n</text><text xml:space="preserve" font-family="BankGothic-Light,Bank Gothic" font-size="48.0" fill="#504460" transform="matrix(1.00, 0.00, -0.00, -1.00, 483.2, 477.8)">g</text><text xml:space="preserve" font-family="BankGothic-Light,Bank Gothic" font-size="48.0" fill="#504460" transform="matrix(1.00, 0.00, -0.00, -1.00, 515.0, 477.8)"> </text><text xml:space="preserve" font-family="BankGothic-Light,Bank Gothic" font-size="48.0" fill="#504460" transform="matrix(1.00, 0.00, -0.00, -1.00, 533.0, 477.8)">S</text><text xml:space="preserve" font-family="BankGothic-Light,Bank Gothic" font-size="48.0" fill="#504460" transform="matrix(1.00, 0.00, -0.00, -1.00, 570.5, 477.8)">Q</text><text xml:space="preserve" font-family="BankGothic-Light,Bank Gothic" font-size="48.0" fill="#504460" transform="matrix(1.00, 0.00, -0.00, -1.00, 611.4, 477.8)">L</text><text xml:space="preserve" font-family="BankGothic-Light,Bank Gothic" font-size="48.0" fill="#504460" transform="matrix(1.00, 0.00, -0.00, -1.00, 642.7, 477.8)"> </text><text xml:space="preserve" font-family="BankGothic-Light,Bank Gothic" font-size="48.0" fill="#504460" transform="matrix(1.00, 0.00, -0.00, -1.00, 660.7, 477.8)">i</text><text xml:space="preserve" font-family="BankGothic-Light,Bank Gothic" font-size="48.0" fill="#504460" transform="matrix(1.00, 0.00, -0.00, -1.00, 673.8, 477.8)">n</text><text xml:space="preserve" font-family="BankGothic-Light,Bank Gothic" font-size="48.0" fill="#504460" transform="matrix(1.00, 0.00, -0.00, -1.00, 706.7, 477.8)"> </text><text xml:space="preserve" font-family="BankGothic-Light,Bank Gothic" font-size="48.0" fill="#504460" transform="matrix(1.00, 0.00, -0.00, -1.00, 724.6, 477.8)">d</text><text xml:space="preserve" font-family="BankGothic-Light,Bank Gothic" font-size="48.0" fill="#504460" transform="matrix(1.00, 0.00, -0.00, -1.00, 759.6, 477.8)">a</text><text xml:space="preserve" font-family="BankGothic-Light,Bank Gothic" font-size="48.0" fill="#504460" transform="matrix(1.00, 0.00, -0.00, -1.00, 789.7, 477.8)">t</text><text xml:space="preserve" font-family="BankGothic-Light,Bank Gothic" font-size="48.0" fill="#504460" transform="matrix(1.00, 0.00, -0.00, -1.00, 814.9, 477.8)">a</text><text xml:space="preserve" font-family="BankGothic-Light,Bank Gothic" font-size="48.0" fill="#504460" transform="matrix(1.00, 0.00, -0.00, -1.00, 845.0, 477.8)"> </text><text xml:space="preserve" font-family="BankGothic-Light,Bank Gothic" font-size="48.0" fill="#504460" transform="matrix(1.00, 0.00, -0.00, -1.00, 863.0, 477.8)">s</text><text xml:space="preserve" font-family="BankGothic-Light,Bank Gothic" font-size="48.0" fill="#504460" transform="matrix(1.00, 0.00, -0.00, -1.00, 893.5, 477.8)">c</text><text xml:space="preserve" font-family="BankGothic-Light,Bank Gothic" font-size="48.0" fill="#504460" transform="matrix(1.00, 0.00, -0.00, -1.00, 923.1, 477.8)">i</text><text xml:space="preserve" font-family="BankGothic-Light,Bank Gothic" font-size="48.0" fill="#504460" transform="matrix(1.00, 0.00, -0.00, -1.00, 936.2, 477.8)">e</text><text xml:space="preserve" font-family="BankGothic-Light,Bank Gothic" font-size="48.0" fill="#504460" transform="matrix(1.00, 0.00, -0.00, -1.00, 964.1, 477.8)">n</text><text xml:space="preserve" font-family="BankGothic-Light,Bank Gothic" font-size="48.0" fill="#504460" transform="matrix(1.00, 0.00, -0.00, -1.00, 997.0, 477.8)">c</text><text xml:space="preserve" font-family="BankGothic-Light,Bank Gothic" font-size="48.0" fill="#504460" transform="matrix(1.00, 0.00, -0.00, -1.00, 1026.6, 477.8)">e</text><text xml:space="preserve" font-family="BankGothic-Light,Bank Gothic" font-size="48.0" fill="#504460" transform="matrix(1.00, 0.00, -0.00, -1.00, 1054.4, 477.8)"> </text><text xml:space="preserve" font-family="BankGothic-Light,Bank Gothic" font-size="48.0" fill="#504460" transform="matrix(1.00, 0.00, -0.00, -1.00, 1072.4, 477.8)">c</text><text xml:space="preserve" font-family="BankGothic-Light,Bank Gothic" font-size="48.0" fill="#504460" transform="matrix(1.00, 0.00, -0.00, -1.00, 1102.0, 477.8)">o</text><text xml:space="preserve" font-family="BankGothic-Light,Bank Gothic" font-size="48.0" fill="#504460" transform="matrix(1.00, 0.00, -0.00, -1.00, 1135.1, 477.8)">n</text><text xml:space="preserve" font-family="BankGothic-Light,Bank Gothic" font-size="48.0" fill="#504460" transform="matrix(1.00, 0.00, -0.00, -1.00, 1168.0, 477.8)">t</text><text xml:space="preserve" font-family="BankGothic-Light,Bank Gothic" font-size="48.0" fill="#504460" transform="matrix(1.00, 0.00, -0.00, -1.00, 1193.2, 477.8)">e</text><text xml:space="preserve" font-family="BankGothic-Light,Bank Gothic" font-size="48.0" fill="#504460" transform="matrix(1.00, 0.00, -0.00, -1.00, 1221.1, 477.8)">x</text><text xml:space="preserve" font-family="BankGothic-Light,Bank Gothic" font-size="48.0" fill="#504460" transform="matrix(1.00, 0.00, -0.00, -1.00, 1249.6, 477.8)">t</text><text xml:space="preserve" font-family="BankGothic-Light,Bank Gothic" font-size="48.0" fill="#504460" transform="matrix(1.00, 0.00, -0.00, -1.00, 1274.8, 477.8)">s</text><text xml:space="preserve" font-family="BankGothic-Medium,Bank Gothic" font-size="56.0" fill="#05510A" transform="matrix(1.00, 0.00, -0.00, -1.00, 597.5, 298.9)">R</text><text xml:space="preserve" font-family="BankGothic-Medium,Bank Gothic" font-size="56.0" fill="#05510A" transform="matrix(1.00, 0.00, -0.00, -1.00, 642.4, 298.9)">y</text><text xml:space="preserve" font-family="BankGothic-Medium,Bank Gothic" font-size="56.0" fill="#05510A" transform="matrix(1.00, 0.00, -0.00, -1.00, 675.6, 298.9)">a</text><text xml:space="preserve" font-family="BankGothic-Medium,Bank Gothic" font-size="56.0" fill="#05510A" transform="matrix(1.00, 0.00, -0.00, -1.00, 711.8, 298.9)">n</text><text xml:space="preserve" font-family="BankGothic-Medium,Bank Gothic" font-size="56.0" fill="#05510A" transform="matrix(1.00, 0.00, -0.00, -1.00, 751.7, 298.9)"> </text><text xml:space="preserve" font-family="BankGothic-Medium,Bank Gothic" font-size="56.0" fill="#05510A" transform="matrix(1.00, 0.00, -0.00, -1.00, 773.3, 298.9)">B</text><text xml:space="preserve" font-family="BankGothic-Medium,Bank Gothic" font-size="56.0" fill="#05510A" transform="matrix(1.00, 0.00, -0.00, -1.00, 817.8, 298.9)">.</text><text xml:space="preserve" font-family="BankGothic-Medium,Bank Gothic" font-size="56.0" fill="#05510A" transform="matrix(1.00, 0.00, -0.00, -1.00, 836.3, 298.9)"> </text><text xml:space="preserve" font-family="BankGothic-Medium,Bank Gothic" font-size="56.0" fill="#05510A" transform="matrix(1.00, 0.00, -0.00, -1.00, 858.0, 298.9)">H</text><text xml:space="preserve" font-family="BankGothic-Medium,Bank Gothic" font-size="56.0" fill="#05510A" transform="matrix(1.00, 0.00, -0.00, -1.00, 907.3, 298.9)">a</text><text xml:space="preserve" font-family="BankGothic-Medium,Bank Gothic" font-size="56.0" fill="#05510A" transform="matrix(1.00, 0.00, -0.00, -1.00, 943.5, 298.9)">r</text><text xml:space="preserve" font-family="BankGothic-Medium,Bank Gothic" font-size="56.0" fill="#05510A" transform="matrix(1.00, 0.00, -0.00, -1.00, 979.9, 298.9)">v</text><text xml:space="preserve" font-family="BankGothic-Medium,Bank Gothic" font-size="56.0" fill="#05510A" transform="matrix(1.00, 0.00, -0.00, -1.00, 1015.3, 298.9)">e</text><text xml:space="preserve" font-family="BankGothic-Medium,Bank Gothic" font-size="56.0" fill="#05510A" transform="matrix(1.00, 0.00, -0.00, -1.00, 1049.3, 298.9)">y</text><text xml:space="preserve" font-family="BankGothic-Medium,Bank Gothic" font-size="56.0" fill="#05510A" transform="matrix(1.00, 0.00, -0.00, -1.00, 1082.5, 298.9)"> </text><text xml:space="preserve" font-family="BankGothic-Medium,Bank Gothic" font-size="56.0" fill="#05510A" transform="matrix(1.00, 0.00, -0.00, -1.00, 586.2, 182.9)">A</text><text xml:space="preserve" font-family="BankGothic-Medium,Bank Gothic" font-size="56.0" fill="#05510A" transform="matrix(1.00, 0.00, -0.00, -1.00, 629.4, 182.9)">u</text><text xml:space="preserve" font-family="BankGothic-Medium,Bank Gothic" font-size="56.0" fill="#05510A" transform="matrix(1.00, 0.00, -0.00, -1.00, 668.0, 182.9)">g</text><text xml:space="preserve" font-family="BankGothic-Medium,Bank Gothic" font-size="56.0" fill="#05510A" transform="matrix(1.00, 0.00, -0.00, -1.00, 706.7, 182.9)">u</text><text xml:space="preserve" font-family="BankGothic-Medium,Bank Gothic" font-size="56.0" fill="#05510A" transform="matrix(1.00, 0.00, -0.00, -1.00, 745.3, 182.9)">s</text><text xml:space="preserve" font-family="BankGothic-Medium,Bank Gothic" font-size="56.0" fill="#05510A" transform="matrix(1.00, 0.00, -0.00, -1.00, 782.4, 182.9)">t</text><text xml:space="preserve" font-family="BankGothic-Medium,Bank Gothic" font-size="56.0" fill="#05510A" transform="matrix(1.00, 0.00, -0.00, -1.00, 815.5, 182.9)"> </text><text xml:space="preserve" font-family="BankGothic-Medium,Bank Gothic" font-size="56.0" fill="#05510A" transform="matrix(1.00, 0.00, -0.00, -1.00, 837.1, 182.9)">6</text><text xml:space="preserve" font-family="BankGothic-Medium,Bank Gothic" font-size="56.0" fill="#05510A" transform="matrix(1.00, 0.00, -0.00, -1.00, 880.4, 182.9)">,</text><text xml:space="preserve" font-family="BankGothic-Medium,Bank Gothic" font-size="56.0" fill="#05510A" transform="matrix(1.00, 0.00, -0.00, -1.00, 899.0, 182.9)"> </text><text xml:space="preserve" font-family="BankGothic-Medium,Bank Gothic" font-size="56.0" fill="#05510A" transform="matrix(1.00, 0.00, -0.00, -1.00, 920.6, 182.9)">2</text><text xml:space="preserve" font-family="BankGothic-Medium,Bank Gothic" font-size="56.0" fill="#05510A" transform="matrix(1.00, 0.00, -0.00, -1.00, 963.9, 182.9)">0</text><text xml:space="preserve" font-family="BankGothic-Medium,Bank Gothic" font-size="56.0" fill="#05510A" transform="matrix(1.00, 0.00, -0.00, -1.00, 1007.2, 182.9)">1</text><text xml:space="preserve" font-family="BankGothic-Medium,Bank Gothic" font-size="56.0" fill="#05510A" transform="matrix(1.00, 0.00, -0.00, -1.00, 1050.5, 182.9)">4</text><image xlink:href="3FAE7DED75F7C1DE14FD40B4BC4CBD1B.png" width="193.00" height="193.00" transform="matrix(1.00, 0.00, -0.00, -1.00, 1257.1, 351.0)" opacity="0.70"></image><g><clipPath id="clip0x6080012a4c20"><path d="M 1261.0 348.0 L 1444.0 348.0 L 1444.0 165.0 L 1261.0 165.0 Z M 1261.1 347.7 "></path></clipPath><g clip-path="url(#clip0x6080012a4c20)"><image xlink:href="774856BCD2036B2E1AB6294D474B6227.png" width="180.00" height="180.00" transform="matrix(1.02, 0.00, -0.00, -1.02, 1261.1, 347.7)"></image></g></g><path d="M 0.0 0.0 L 0.0 183.0 L 183.0 183.0 L 183.0 0.0 L 0.0 0.0 Z M 0.0 0.0 " fill="none" stroke="#F2F6F5" stroke-width="2.00" transform="matrix(1.00, 0.00, 0.00, -1.00, 1261.1, 347.7)"></path><image xlink:href="../../8109EDB8-06C5-4C2E-86C8-B44BC6D319A9/assets/3FAE7DED75F7C1DE14FD40B4BC4CBD1B.png" width="193.00" height="193.00" transform="matrix(1.00, 0.00, -0.00, -1.00, 231.9, 351.5)" opacity="0.70"></image><image xlink:href="DB5870AEC8A419D4B4C3D1554C994A0D.png" width="240.00" height="240.00" transform="matrix(0.76, 0.00, -0.00, -0.76, 235.9, 348.2)"></image><path d="M 0.0 0.0 L 183.0 0.0 L 183.0 183.0 L 0.0 183.0 Z M 0.0 0.0 " fill="none" stroke="#F2F6F5" stroke-width="2.00" transform="matrix(1.00, 0.00, 0.00, -1.00, 235.9, 348.2)"></path></g></svg>